<svg width="25" height="24" viewBox="0 0 25 24" fill="none" xmlns="http://www.w3.org/2000/svg">
<g id="uil:android">
<path id="Vector" d="M15.4751 3.019L16.4351 1.287C16.4474 1.26481 16.4552 1.24041 16.458 1.21521C16.4609 1.19001 16.4588 1.16449 16.4517 1.14011C16.4447 1.11574 16.433 1.09298 16.4172 1.07314C16.4014 1.05331 16.3818 1.03678 16.3596 1.0245C16.3374 1.01222 16.313 1.00443 16.2878 1.00158C16.2626 0.998732 16.2371 1.00087 16.2127 1.00788C16.1884 1.01489 16.1656 1.02664 16.1458 1.04244C16.1259 1.05825 16.1094 1.07781 16.0971 1.1L15.1271 2.85C14.2991 2.48695 13.4048 2.29951 12.5006 2.29951C11.5965 2.29951 10.7022 2.48695 9.87412 2.85L8.90413 1.1C8.87933 1.05491 8.83763 1.02152 8.78822 1.00718C8.7388 0.99283 8.68571 0.998702 8.64062 1.0235C8.59554 1.0483 8.56215 1.08999 8.5478 1.13941C8.53346 1.18882 8.53933 1.24191 8.56413 1.287L9.52413 3.019C8.61071 3.46949 7.83899 4.1628 7.29357 5.02291C6.74816 5.88301 6.45011 6.8767 6.43213 7.895H18.5691C18.551 6.87649 18.2526 5.88266 17.7068 5.02253C17.161 4.16241 16.3889 3.46921 15.4751 3.019ZM9.70012 5.674C9.59981 5.674 9.50174 5.64424 9.41835 5.58848C9.33495 5.53273 9.26997 5.45349 9.23162 5.36079C9.19328 5.26809 9.1833 5.1661 9.20294 5.06772C9.22258 4.96934 9.27097 4.87901 9.34198 4.80814C9.41298 4.73728 9.50341 4.68907 9.60183 4.66962C9.70024 4.65017 9.80221 4.66035 9.89484 4.69888C9.98746 4.73741 10.0666 4.80255 10.1222 4.88605C10.1778 4.96956 10.2073 5.06768 10.2071 5.168C10.2069 5.30229 10.1533 5.43099 10.0583 5.52586C9.96322 5.62072 9.83442 5.674 9.70012 5.674ZM15.3021 5.674C15.2018 5.674 15.1037 5.64424 15.0203 5.58848C14.937 5.53273 14.872 5.45349 14.8336 5.36079C14.7953 5.26809 14.7853 5.1661 14.8049 5.06772C14.8246 4.96934 14.873 4.87901 14.944 4.80814C15.015 4.73728 15.1054 4.68907 15.2038 4.66962C15.3022 4.65017 15.4042 4.66035 15.4968 4.69888C15.5895 4.73741 15.6686 4.80255 15.7242 4.88605C15.7798 4.96956 15.8093 5.06768 15.8091 5.168C15.8089 5.30229 15.7553 5.43099 15.6603 5.52586C15.5652 5.62072 15.4364 5.674 15.3021 5.674ZM6.43012 17.171C6.42986 17.3641 6.46771 17.5553 6.5415 17.7337C6.6153 17.9121 6.72358 18.0742 6.86015 18.2107C6.99672 18.3472 7.15888 18.4553 7.33734 18.529C7.51581 18.6027 7.70706 18.6404 7.90013 18.64H8.87313V21.64C8.87313 22.0008 9.01646 22.3469 9.27161 22.602C9.52675 22.8572 9.8728 23.0005 10.2336 23.0005C10.5945 23.0005 10.9405 22.8572 11.1956 22.602C11.4508 22.3469 11.5941 22.0008 11.5941 21.64V18.64H13.4081V21.64C13.4081 22.0007 13.5514 22.3466 13.8065 22.6017C14.0615 22.8567 14.4074 23 14.7681 23C15.1288 23 15.4747 22.8567 15.7298 22.6017C15.9848 22.3466 16.1281 22.0007 16.1281 21.64V18.64H17.1021C17.2949 18.6401 17.4859 18.6022 17.6641 18.5285C17.8422 18.4548 18.0041 18.3467 18.1405 18.2103C18.2768 18.074 18.3849 17.9121 18.4586 17.7339C18.5324 17.5558 18.5703 17.3648 18.5701 17.172V8.375H6.43012V17.171ZM4.56313 8.141C4.20242 8.14153 3.85665 8.28512 3.60169 8.54027C3.34673 8.79542 3.20339 9.14129 3.20312 9.502V15.171C3.20312 15.3496 3.2383 15.5264 3.30665 15.6914C3.375 15.8565 3.47517 16.0064 3.60146 16.1327C3.72775 16.259 3.87767 16.3591 4.04268 16.4275C4.20768 16.4958 4.38453 16.531 4.56313 16.531C4.74172 16.531 4.91857 16.4958 5.08357 16.4275C5.24858 16.3591 5.3985 16.259 5.52479 16.1327C5.65108 16.0064 5.75125 15.8565 5.8196 15.6914C5.88795 15.5264 5.92312 15.3496 5.92312 15.171V9.502C5.9226 9.14147 5.77914 8.79585 5.52421 8.54092C5.26927 8.28598 4.92366 8.14253 4.56313 8.142V8.141ZM20.4351 8.141C20.0744 8.14153 19.7287 8.28512 19.4737 8.54027C19.2187 8.79542 19.0754 9.14129 19.0751 9.502V15.171C19.0751 15.3496 19.1103 15.5264 19.1786 15.6914C19.247 15.8565 19.3472 16.0064 19.4735 16.1327C19.5997 16.259 19.7497 16.3591 19.9147 16.4275C20.0797 16.4958 20.2565 16.531 20.4351 16.531C20.6137 16.531 20.7906 16.4958 20.9556 16.4275C21.1206 16.3591 21.2705 16.259 21.3968 16.1327C21.5231 16.0064 21.6233 15.8565 21.6916 15.6914C21.7599 15.5264 21.7951 15.3496 21.7951 15.171V9.502C21.7946 9.14147 21.6511 8.79585 21.3962 8.54092C21.1413 8.28598 20.7957 8.14253 20.4351 8.142V8.141Z" fill="#F8F8F8"/>
</g>
</svg>
