<svg width="83" height="76" viewBox="0 0 83 76" fill="none" xmlns="http://www.w3.org/2000/svg">
<g opacity="0.2" filter="url(#filter0_d_47_4222)">
<rect x="2" y="2" width="76.6667" height="70" rx="19.5595" fill="url(#paint0_linear_47_4222)"/>
<rect x="2.4644" y="2.4644" width="75.7379" height="69.0712" rx="19.0951" stroke="#8A8E91" stroke-width="0.928794"/>
</g>
<path d="M27.9462 26.9534C27.7131 26.8277 27.4514 26.7646 27.1867 26.7704C26.922 26.7761 26.6633 26.8505 26.4359 26.9862C26.2085 27.1219 26.0203 27.3142 25.8895 27.5445C25.7587 27.7747 25.69 28.035 25.6899 28.2998V47.6798C25.6899 48.0855 25.8511 48.4747 26.1381 48.7616C26.425 49.0486 26.8142 49.2098 27.2199 49.2098C27.6257 49.2098 28.0149 49.0486 28.3018 48.7616C28.5887 48.4747 28.7499 48.0855 28.7499 47.6798V30.862L39.7537 36.7862C40.2066 37.031 40.7533 37.031 41.2062 36.7862L52.2099 30.862V47.6798C52.2099 48.0855 52.3711 48.4747 52.6581 48.7616C52.945 49.0486 53.3342 49.2098 53.7399 49.2098C54.1457 49.2098 54.5349 49.0486 54.8218 48.7616C55.1087 48.4747 55.2699 48.0855 55.2699 47.6798V28.2998C55.2699 28.035 55.2011 27.7747 55.0704 27.5445C54.9396 27.3142 54.7514 27.1219 54.524 26.9862C54.2966 26.8505 54.0379 26.7761 53.7732 26.7704C53.5084 26.7646 53.2468 26.8277 53.0137 26.9534L40.4799 33.7017L27.9462 26.9534Z" fill="#F8F8F8"/>
<path fill-rule="evenodd" clip-rule="evenodd" d="M51.3122 20.5936C44.105 19.9493 36.8546 19.9493 29.6474 20.5936L26.5507 20.869C24.9376 21.013 23.4202 21.6966 22.2435 22.8093C21.0668 23.9219 20.2995 25.3988 20.0655 27.0012C19.0495 33.9506 19.0495 41.0108 20.0655 47.9602C20.3 49.5626 21.0678 51.0392 22.2449 52.1515C23.4219 53.2638 24.9396 53.9469 26.5527 54.0904L29.6454 54.3678C36.8547 55.0125 44.1049 55.0125 51.3142 54.3678L54.4089 54.0904C56.0217 53.9465 57.5388 53.2632 58.7155 52.1509C59.8922 51.0387 60.6597 49.5623 60.8941 47.9602C61.9101 41.0108 61.9101 33.9506 60.8941 27.0012C60.66 25.3985 59.8924 23.9214 58.7153 22.8087C57.5382 21.696 56.0203 21.0126 54.4069 20.869L51.3142 20.5936H51.3122ZM29.9208 23.6414C36.9475 23.0131 44.0162 23.0131 51.0429 23.6414L54.1376 23.9188C55.0653 24.0012 55.9382 24.3939 56.6152 25.0336C57.2922 25.6732 57.7338 26.5224 57.8688 27.4439C58.842 34.0997 58.842 40.8617 57.8688 47.5175C57.7338 48.4391 57.2922 49.2883 56.6152 49.9279C55.9382 50.5675 55.0653 50.9602 54.1376 51.0426L51.0429 51.3201C44.0172 51.9484 36.9465 51.9484 29.9208 51.3201L26.8261 51.0426C25.8983 50.9602 25.0255 50.5675 24.3485 49.9279C23.6715 49.2883 23.2298 48.4391 23.0949 47.5175C22.1218 40.8617 22.1218 34.0997 23.0949 27.4439C23.2298 26.5224 23.6715 25.6732 24.3485 25.0336C25.0255 24.3939 25.8983 24.0012 26.8261 23.9188L29.9208 23.6414Z" fill="#F8F8F8"/>
<defs>
<filter id="filter0_d_47_4222" x="0.575016" y="0.575016" width="82.05" height="75.3833" filterUnits="userSpaceOnUse" color-interpolation-filters="sRGB">
<feFlood flood-opacity="0" result="BackgroundImageFix"/>
<feColorMatrix in="SourceAlpha" type="matrix" values="0 0 0 0 0 0 0 0 0 0 0 0 0 0 0 0 0 0 127 0" result="hardAlpha"/>
<feOffset dx="1.26665" dy="1.26665"/>
<feGaussianBlur stdDeviation="1.34582"/>
<feComposite in2="hardAlpha" operator="out"/>
<feColorMatrix type="matrix" values="0 0 0 0 0 0 0 0 0 0 0 0 0 0 0 0 0 0 0.65 0"/>
<feBlend mode="normal" in2="BackgroundImageFix" result="effect1_dropShadow_47_4222"/>
<feBlend mode="normal" in="SourceGraphic" in2="effect1_dropShadow_47_4222" result="shape"/>
</filter>
<linearGradient id="paint0_linear_47_4222" x1="78.6667" y1="70.5023" x2="-7.89863" y2="42.0184" gradientUnits="userSpaceOnUse">
<stop stop-color="#121518"/>
<stop offset="1" stop-color="#22262C"/>
</linearGradient>
</defs>
</svg>
