<svg width="83" height="76" viewBox="0 0 83 76" fill="none" xmlns="http://www.w3.org/2000/svg">
<g id="Call_icons">
<g id="Rectangle 667" opacity="0.2" filter="url(#filter0_d_47_4225)">
<rect x="2" y="2" width="76.6667" height="70" rx="19.5595" fill="url(#paint0_linear_47_4225)"/>
<rect x="2.4644" y="2.4644" width="75.7379" height="69.0712" rx="19.0951" stroke="#8A8E91" stroke-width="0.928794"/>
</g>
<path id="Vector" d="M19 16H36.5032L39.5367 29.6476L35.7423 33.442C37.9723 36.9149 40.9246 39.8665 44.398 42.0957L48.1924 38.3033L61.84 41.3368V58.84H59.8C51.9469 58.8522 44.2586 56.5875 37.666 52.3202C32.8052 49.1744 28.6657 45.0348 25.5199 40.174C21.2525 33.5815 18.9878 25.8932 19 18.04V16ZM23.1351 20.08C23.4782 26.4447 25.482 32.6087 28.9471 37.9586C31.7794 42.3342 35.5059 46.0607 39.8815 48.893C45.2313 52.3581 51.3953 54.3619 57.7601 54.7049V44.609L49.4919 42.773L45.057 47.21L43.7044 46.4409C38.5692 43.5223 34.3177 39.2708 31.3992 34.1356L30.6301 32.7831L35.0671 28.3481L33.2311 20.08H23.1351Z" fill="#F8F8F8"/>
</g>
<defs>
<filter id="filter0_d_47_4225" x="0.575016" y="0.575016" width="82.05" height="75.3833" filterUnits="userSpaceOnUse" color-interpolation-filters="sRGB">
<feFlood flood-opacity="0" result="BackgroundImageFix"/>
<feColorMatrix in="SourceAlpha" type="matrix" values="0 0 0 0 0 0 0 0 0 0 0 0 0 0 0 0 0 0 127 0" result="hardAlpha"/>
<feOffset dx="1.26665" dy="1.26665"/>
<feGaussianBlur stdDeviation="1.34582"/>
<feComposite in2="hardAlpha" operator="out"/>
<feColorMatrix type="matrix" values="0 0 0 0 0 0 0 0 0 0 0 0 0 0 0 0 0 0 0.65 0"/>
<feBlend mode="normal" in2="BackgroundImageFix" result="effect1_dropShadow_47_4225"/>
<feBlend mode="normal" in="SourceGraphic" in2="effect1_dropShadow_47_4225" result="shape"/>
</filter>
<linearGradient id="paint0_linear_47_4225" x1="78.6667" y1="70.5023" x2="-7.89863" y2="42.0184" gradientUnits="userSpaceOnUse">
<stop stop-color="#121518"/>
<stop offset="1" stop-color="#22262C"/>
</linearGradient>
</defs>
</svg>
