<svg width="35" height="53" viewBox="0 0 35 53" fill="none" xmlns="http://www.w3.org/2000/svg">
<path d="M34.793 47.2754V52.6191H1.28906V47.9434L18.0586 29.2754C20.1211 26.9785 21.7148 25.0332 22.8398 23.4395C23.9883 21.8223 24.7852 20.3809 25.2305 19.1152C25.6992 17.8262 25.9336 16.5137 25.9336 15.1777C25.9336 13.4902 25.582 11.9668 24.8789 10.6074C24.1992 9.22461 23.1914 8.12305 21.8555 7.30273C20.5195 6.48242 18.9023 6.07227 17.0039 6.07227C14.7305 6.07227 12.832 6.51758 11.3086 7.4082C9.80859 8.27539 8.68359 9.49414 7.93359 11.0645C7.18359 12.6348 6.80859 14.4395 6.80859 16.4785H0.304688C0.304688 13.5957 0.9375 10.959 2.20312 8.56836C3.46875 6.17773 5.34375 4.2793 7.82812 2.87305C10.3125 1.44336 13.3711 0.728516 17.0039 0.728516C20.2383 0.728516 23.0039 1.30273 25.3008 2.45117C27.5977 3.57617 29.3555 5.16992 30.5742 7.23242C31.8164 9.27148 32.4375 11.6621 32.4375 14.4043C32.4375 15.9043 32.1797 17.4277 31.6641 18.9746C31.1719 20.498 30.4805 22.0215 29.5898 23.5449C28.7227 25.0684 27.7031 26.5684 26.5312 28.0449C25.3828 29.5215 24.1523 30.9746 22.8398 32.4043L9.12891 47.2754H34.793Z" fill="#FFD34E"/>
</svg>
