<svg width="33" height="54" viewBox="0 0 33 54" fill="none" xmlns="http://www.w3.org/2000/svg">
<path d="M10.7461 23.8262H15.3867C17.6602 23.8262 19.5352 23.4512 21.0117 22.7012C22.5117 21.9277 23.625 20.8848 24.3516 19.5723C25.1016 18.2363 25.4766 16.7363 25.4766 15.0723C25.4766 13.1035 25.1484 11.4512 24.4922 10.1152C23.8359 8.7793 22.8516 7.77148 21.5391 7.0918C20.2266 6.41211 18.5625 6.07227 16.5469 6.07227C14.7188 6.07227 13.1016 6.43555 11.6953 7.16211C10.3125 7.86523 9.22266 8.87305 8.42578 10.1855C7.65234 11.498 7.26562 13.0449 7.26562 14.8262H0.761719C0.761719 12.2246 1.41797 9.85742 2.73047 7.72461C4.04297 5.5918 5.88281 3.89258 8.25 2.62695C10.6406 1.36133 13.4062 0.728516 16.5469 0.728516C19.6406 0.728516 22.3477 1.2793 24.668 2.38086C26.9883 3.45898 28.793 5.07617 30.082 7.23242C31.3711 9.36523 32.0156 12.0254 32.0156 15.2129C32.0156 16.502 31.7109 17.8848 31.1016 19.3613C30.5156 20.8145 29.5898 22.1738 28.3242 23.4395C27.082 24.7051 25.4648 25.748 23.4727 26.5684C21.4805 27.3652 19.0898 27.7637 16.3008 27.7637H10.7461V23.8262ZM10.7461 29.1699V25.2676H16.3008C19.5586 25.2676 22.2539 25.6543 24.3867 26.4277C26.5195 27.2012 28.1953 28.2324 29.4141 29.5215C30.6562 30.8105 31.5234 32.2285 32.0156 33.7754C32.5312 35.2988 32.7891 36.8223 32.7891 38.3457C32.7891 40.7363 32.3789 42.8574 31.5586 44.709C30.7617 46.5605 29.625 48.1309 28.1484 49.4199C26.6953 50.709 24.9844 51.6816 23.0156 52.3379C21.0469 52.9941 18.9023 53.3223 16.582 53.3223C14.3555 53.3223 12.2578 53.0059 10.2891 52.373C8.34375 51.7402 6.62109 50.8262 5.12109 49.6309C3.62109 48.4121 2.44922 46.9238 1.60547 45.166C0.761719 43.3848 0.339844 41.3574 0.339844 39.084H6.84375C6.84375 40.8652 7.23047 42.4238 8.00391 43.7598C8.80078 45.0957 9.92578 46.1387 11.3789 46.8887C12.8555 47.6152 14.5898 47.9785 16.582 47.9785C18.5742 47.9785 20.2852 47.6387 21.7148 46.959C23.168 46.2559 24.2812 45.2012 25.0547 43.7949C25.8516 42.3887 26.25 40.6191 26.25 38.4863C26.25 36.3535 25.8047 34.6074 24.9141 33.248C24.0234 31.8652 22.7578 30.8457 21.1172 30.1895C19.5 29.5098 17.5898 29.1699 15.3867 29.1699H10.7461Z" fill="#FFD34E"/>
</svg>
