<svg width="26" height="35" viewBox="0 0 26 35" fill="none" xmlns="http://www.w3.org/2000/svg">
<path d="M23.0715 18.6003L17.8036 15.9663C19.901 14.3404 21.2505 11.804 21.2505 8.94244C21.2505 4.01597 17.2345 0 12.308 0C9.93769 0.00429804 7.66564 0.947825 5.98954 2.62393C4.31343 4.30003 3.36991 6.57208 3.36561 8.94244C3.36561 12.4056 5.3492 15.4135 8.2433 16.8931V22.1935C4.74762 21.4456 4.95899 21.4781 4.56877 21.4781C3.70705 21.4781 2.8941 21.8195 2.27626 22.4374L0 24.7462L8.27582 33.022C8.97496 33.7374 9.95049 34.1439 10.9586 34.1439H21.2017C22.7951 34.1439 24.1446 33.0057 24.4047 31.4286L25.7054 23.7706C26.0631 21.657 25.0063 19.5758 23.0715 18.6003ZM22.5024 23.2341L21.2017 30.8921H10.9586C10.8122 30.8921 10.6821 30.827 10.5683 30.7295L4.58503 24.7462L11.4951 26.1932V8.94244C11.4951 8.48719 11.8528 8.12949 12.308 8.12949C12.7633 8.12949 13.121 8.48719 13.121 8.94244V18.6978H15.9826L21.6082 21.5106C22.2585 21.8358 22.6162 22.5349 22.5024 23.2341ZM6.6174 8.94244C6.6174 5.80446 9.17006 3.2518 12.308 3.2518C15.446 3.2518 17.9987 5.80446 17.9987 8.94244C17.9987 10.487 17.3808 11.8853 16.3728 12.9096V8.94244C16.3728 7.8644 15.9445 6.83052 15.1823 6.06823C14.42 5.30594 13.3861 4.87769 12.308 4.87769C11.23 4.87769 10.1961 5.30594 9.43384 6.06823C8.67155 6.83052 8.2433 7.8644 8.2433 8.94244V12.9096C7.23525 11.8853 6.6174 10.487 6.6174 8.94244Z" fill="#FFD34E"/>
</svg>
