<svg width="37" height="35" viewBox="0 0 37 35" fill="none" xmlns="http://www.w3.org/2000/svg">
<path d="M29.1111 4.88889H27.6667V2H24.7778V4.88889H13.2222V2H10.3333V4.88889H8.88889C7.3 4.88889 6 6.18889 6 7.77778V28C6 29.5889 7.3 30.8889 8.88889 30.8889H29.1111C30.7 30.8889 32 29.5889 32 28V7.77778C32 6.18889 30.7 4.88889 29.1111 4.88889ZM29.1111 28H8.88889V13.5556H29.1111V28ZM8.88889 10.6667V7.77778H29.1111V10.6667H8.88889Z" fill="#FFD34E"/>
<path d="M20.4906 23.0052H20.4905V23.0094C20.4905 23.3855 20.3629 23.6607 20.1167 23.8635C19.8639 24.0703 19.5003 24.1894 18.9971 24.1894C18.4887 24.1894 18.1329 24.0517 17.8891 23.8056L17.8887 23.8052C17.647 23.5623 17.5094 23.2008 17.5094 22.6816V22.4316H17.2594H16.1111H15.8611V22.6816C15.8611 23.5313 16.093 24.2327 16.5786 24.7604L16.5786 24.7604L16.5805 24.7625C17.0236 25.2333 17.6112 25.5133 18.3253 25.6166V26.5556V26.8056H18.5753H19.494H19.744V26.5556V25.6144C20.4382 25.5088 21.0074 25.254 21.4326 24.8289C21.9089 24.3572 22.1389 23.7378 22.1389 22.9979C22.1389 22.5342 22.0469 22.119 21.8547 21.7552C21.6679 21.3953 21.3773 21.0843 20.994 20.8269C20.6132 20.5635 20.0968 20.3337 19.45 20.1322C18.8355 19.9325 18.4215 19.7233 18.1825 19.5149C17.97 19.3219 17.8575 19.0626 17.8575 18.7093C17.8575 18.3154 17.9708 18.0406 18.1702 17.8501L18.1708 17.8496C18.3711 17.657 18.6771 17.5423 19.1271 17.5423C19.5314 17.5423 19.8321 17.6829 20.0579 17.9569C20.2883 18.2364 20.4169 18.6278 20.4169 19.16V19.41H20.6669H21.808H22.058V19.16C22.058 18.2927 21.8558 17.5745 21.4187 17.0382C21.0309 16.556 20.5035 16.2545 19.8552 16.1258V15V14.75H19.6052H18.6808H18.4308V15V16.1157C17.792 16.2279 17.2657 16.4934 16.866 16.9208L16.8659 16.9208L16.8647 16.9221C16.423 17.4012 16.2092 18.0108 16.2092 18.7281C16.2092 19.4368 16.4292 20.0392 16.8778 20.517L16.8778 20.517L16.8799 20.5192C17.3277 20.9845 18.0173 21.3428 18.9165 21.6129C19.5366 21.8156 19.9408 22.0319 20.1618 22.2469L20.1617 22.247L20.167 22.2519C20.2712 22.3474 20.3538 22.464 20.4096 22.5938C20.4654 22.7237 20.493 22.8639 20.4906 23.0052Z" fill="#FFD34E" stroke="#FFD34E" stroke-width="0.5"/>
</svg>
