<svg width="39" height="27" viewBox="0 0 39 27" fill="none" xmlns="http://www.w3.org/2000/svg">
<path d="M11.55 21.4501C10.5004 20.4099 9.66807 19.1714 9.10153 17.8065C8.535 16.4417 8.24554 14.9778 8.25001 13.5001C8.25001 10.3876 9.50626 7.57509 11.55 5.55009L14.2125 8.21259C12.8438 9.56259 12 11.4376 12 13.5001C12 15.5626 12.8438 17.4376 14.1938 18.8063L11.55 21.4501ZM27.45 21.4501C28.4997 20.4099 29.332 19.1714 29.8985 17.8065C30.465 16.4417 30.7545 14.9778 30.75 13.5001C30.75 10.3876 29.4938 7.57509 27.45 5.55009L24.7875 8.21259C26.1563 9.56259 27 11.4376 27 13.5001C27 15.5626 26.1563 17.4376 24.8063 18.8063L27.45 21.4501ZM19.5 9.75009C17.4375 9.75009 15.75 11.4376 15.75 13.5001C15.75 15.5626 17.4375 17.2501 19.5 17.2501C21.5625 17.2501 23.25 15.5626 23.25 13.5001C23.25 11.4376 21.5625 9.75009 19.5 9.75009ZM34.5 13.5001C34.5 17.6438 32.8125 21.3938 30.0938 24.0938L32.7563 26.7563C34.5001 25.0175 35.8831 22.9513 36.8259 20.6764C37.7687 18.4015 38.2527 15.9626 38.25 13.5001C38.25 8.32509 36.15 3.63759 32.7563 0.243835L30.0938 2.90634C31.4924 4.29291 32.6021 5.94322 33.3584 7.76168C34.1148 9.58014 34.5028 11.5306 34.5 13.5001ZM8.90626 2.90634L6.24376 0.243835C4.49996 1.98262 3.11693 4.04884 2.17414 6.32378C1.23134 8.59872 0.747364 11.0375 0.750011 13.5001C0.750011 18.6751 2.85001 23.3626 6.24376 26.7563L8.90626 24.0938C7.50759 22.7073 6.39794 21.0569 5.64159 19.2385C4.88524 17.42 4.49722 15.4696 4.50001 13.5001C4.50001 9.35634 6.18751 5.60634 8.90626 2.90634Z" fill="#FFD34E"/>
</svg>
