<svg width="36" height="38" viewBox="0 0 36 38" fill="none" xmlns="http://www.w3.org/2000/svg">
<path d="M15.2113 23.7935L11.3919 19.9741L9.49116 21.8748L15.1934 27.5771L25.9523 16.8182L24.0516 14.9174L15.2113 23.7935ZM27.3994 0.984619L35.6604 7.87929L33.3652 10.6318L25.0988 3.74069L27.3994 0.984619ZM8.25926 0.984619L10.5581 3.7389L2.29524 10.6318L0 7.8775L8.25926 0.984619ZM17.8293 4.91162C13.5487 4.91162 9.44336 6.6121 6.41649 9.63897C3.38963 12.6658 1.68915 16.7711 1.68915 21.0518C1.68915 25.3324 3.38963 29.4377 6.41649 32.4646C9.44336 35.4915 13.5487 37.192 17.8293 37.192C22.11 37.192 26.2153 35.4915 29.2421 32.4646C32.269 29.4377 33.9695 25.3324 33.9695 21.0518C33.9695 16.7711 32.269 12.6658 29.2421 9.63897C26.2153 6.6121 22.11 4.91162 17.8293 4.91162ZM17.8293 33.6021C10.9077 33.6021 5.27725 27.9716 5.27725 21.05C5.27725 14.1284 10.9077 8.49793 17.8293 8.49793C24.7509 8.49793 30.3814 14.1284 30.3814 21.05C30.3814 27.9716 24.7509 33.6021 17.8293 33.6021Z" fill="#FFD34E"/>
</svg>
