<svg width="37" height="35" viewBox="0 0 37 35" fill="none" xmlns="http://www.w3.org/2000/svg">
<rect x="11.8779" y="14.7726" width="13.3971" height="3.40088" rx="1.70044" transform="rotate(135 11.8779 14.7726)" fill="#FFD34E"/>
<rect x="30.7866" y="9.30685" width="19.5633" height="3.42845" rx="1.71423" transform="rotate(135 30.7866 9.30685)" fill="#FFD34E"/>
<rect x="17.0393" y="23.0421" width="12.7882" height="3.40703" rx="1.70352" transform="rotate(-140.471 17.0393 23.0421)" fill="#FFD34E"/>
<path fill-rule="evenodd" clip-rule="evenodd" d="M33.5174 3.86784L27.0831 5.38348L33.2711 10.4737L33.5174 3.86784ZM36.9988 1.76451C37.0406 0.642482 36.0027 -0.211302 34.9098 0.0461358L22.9617 2.8606C21.5921 3.18322 21.1847 4.93486 22.2714 5.82875L33.7622 15.2809C34.8489 16.1748 36.4891 15.4372 36.5415 14.0311L36.9988 1.76451Z" fill="#FFD34E"/>
<rect x="8.49829" y="22.1635" width="1.70032" height="11.9022" rx="0.850159" fill="#FFD34E"/>
<rect x="1.70068" y="27.266" width="1.70032" height="6.80127" rx="0.850159" fill="#FFD34E"/>
<rect x="15.2993" y="25.5657" width="1.70032" height="8.50159" rx="0.850159" fill="#FFD34E"/>
<rect x="22.1038" y="22.1635" width="1.70032" height="11.9022" rx="0.850159" fill="#FFD34E"/>
<rect x="28.9014" y="15.3642" width="1.70032" height="18.7035" rx="0.850159" fill="#FFD34E"/>
</svg>
