<svg width="143" height="69" viewBox="0 0 143 69" fill="none" xmlns="http://www.w3.org/2000/svg">
<rect x="9.66797" width="59.9392" height="59.627" rx="17.1701" transform="rotate(9.33111 9.66797 0)" fill="#FFD34E" fill-opacity="0.29"/>
<rect x="6.72168" y="6.62" width="55.2627" height="54.9748" rx="15.8304" fill="#FFD34E"/>
<rect x="18.2346" y="26.7679" width="4.60522" height="8.92262" rx="0.863479" fill="#0C0C0C"/>
<rect x="32.0503" y="37.1296" width="4.60522" height="8.92262" rx="0.863479" fill="#0C0C0C"/>
<rect x="38.958" y="30.2218" width="4.60522" height="8.92262" rx="0.863479" fill="#0C0C0C"/>
<rect x="45.866" y="22.7383" width="4.60522" height="14.1035" rx="0.863479" fill="#0C0C0C"/>
<rect x="20.2495" y="25.3287" width="0.575653" height="2.01478" rx="0.287826" fill="#0C0C0C"/>
<rect x="34.0652" y="35.6905" width="0.575653" height="2.01478" rx="0.287826" fill="#0C0C0C"/>
<rect x="40.9729" y="28.7827" width="0.575653" height="2.01478" rx="0.287826" fill="#0C0C0C"/>
<rect x="47.8806" y="20.7235" width="0.575653" height="2.59044" rx="0.287826" fill="#0C0C0C"/>
<rect x="20.2495" y="35.1148" width="0.575653" height="2.30261" rx="0.287826" fill="#0C0C0C"/>
<rect x="34.0652" y="45.4766" width="0.575653" height="2.30261" rx="0.287826" fill="#0C0C0C"/>
<rect x="40.9729" y="38.5687" width="0.575653" height="2.30261" rx="0.287826" fill="#0C0C0C"/>
<rect x="47.8806" y="35.4026" width="0.575653" height="3.45392" rx="0.287826" fill="#0C0C0C"/>
<rect x="25.4304" y="32.8123" width="4.60522" height="5.4687" rx="0.863479" fill="#0C0C0C"/>
<rect x="27.4451" y="31.3731" width="0.575653" height="2.01478" rx="0.287826" fill="#0C0C0C"/>
<rect x="27.4451" y="37.9931" width="0.575653" height="1.72696" rx="0.287826" fill="#0C0C0C"/>
<path d="M74.2956 18.6951V14.8806H94.3371V18.6951H86.5732V40H82.0595V18.6951H74.2956ZM113.916 22.9021C113.711 22.2398 113.429 21.647 113.069 21.1237C112.718 20.5922 112.293 20.1383 111.794 19.7622C111.303 19.3861 110.739 19.104 110.101 18.9159C109.463 18.7197 108.768 18.6215 108.016 18.6215C106.667 18.6215 105.465 18.9609 104.41 19.6396C103.355 20.3182 102.525 21.3158 101.92 22.6323C101.323 23.9406 101.025 25.5351 101.025 27.4158C101.025 29.3128 101.323 30.9196 101.92 32.236C102.517 33.5525 103.347 34.5542 104.41 35.2411C105.473 35.9197 106.708 36.2591 108.114 36.2591C109.39 36.2591 110.494 36.0138 111.426 35.5232C112.366 35.0325 113.09 34.3375 113.597 33.438C114.104 32.5304 114.357 31.4674 114.357 30.2491L115.388 30.4085H108.568V26.8516H118.76V29.8688C118.76 32.0194 118.303 33.8796 117.387 35.4496C116.471 37.0195 115.212 38.2297 113.609 39.0801C112.006 39.9223 110.167 40.3434 108.09 40.3434C105.776 40.3434 103.744 39.8242 101.994 38.7857C100.252 37.7391 98.8906 36.255 97.9094 34.3334C96.9364 32.4037 96.4498 30.1141 96.4498 27.4648C96.4498 25.437 96.736 23.6258 97.3084 22.0313C97.889 20.4368 98.6985 19.0835 99.7369 17.9715C100.775 16.8512 101.994 16.0008 103.392 15.4203C104.79 14.8315 106.311 14.5372 107.955 14.5372C109.345 14.5372 110.641 14.7416 111.843 15.1504C113.045 15.5511 114.112 16.1235 115.044 16.8676C115.984 17.6117 116.757 18.4948 117.362 19.5169C117.967 20.539 118.364 21.6674 118.552 22.9021H113.916ZM123.161 40V14.8806H132.58C134.51 14.8806 136.129 15.2159 137.437 15.8864C138.754 16.5569 139.747 17.4972 140.418 18.7074C141.097 19.9094 141.436 21.3117 141.436 22.9144C141.436 24.5252 141.093 25.9235 140.406 27.1091C139.727 28.2866 138.725 29.1983 137.401 29.8443C136.076 30.4821 134.449 30.801 132.519 30.801H125.81V27.0233H131.906C133.034 27.0233 133.958 26.8679 134.678 26.5572C135.397 26.2383 135.929 25.7763 136.272 25.1712C136.624 24.558 136.8 23.8057 136.8 22.9144C136.8 22.0231 136.624 21.2627 136.272 20.633C135.921 19.9953 135.385 19.5128 134.666 19.1857C133.946 18.8505 133.018 18.6829 131.881 18.6829H127.711V40H123.161ZM136.137 28.6178L142.356 40H137.278L131.17 28.6178H136.137Z" fill="#FFD34E"/>
<path d="M88.1953 50C88.0495 49.4687 87.8359 48.9714 87.5547 48.5078C87.2734 48.0391 86.9245 47.6302 86.5078 47.2812C86.0964 46.9271 85.6198 46.651 85.0781 46.4531C84.5417 46.2552 83.9427 46.1562 83.2813 46.1562C82.2396 46.1562 81.3073 46.4271 80.4844 46.9687C79.6615 47.5104 79.0104 48.2917 78.5313 49.3125C78.0573 50.3333 77.8203 51.5625 77.8203 53C77.8203 54.4323 78.0599 55.6589 78.5391 56.6797C79.0182 57.7005 79.6745 58.4844 80.5078 59.0312C81.3464 59.5729 82.3047 59.8437 83.3828 59.8437C84.3672 59.8437 85.237 59.625 85.9922 59.1875C86.7474 58.75 87.3359 58.125 87.7578 57.3125C88.1849 56.5 88.3932 55.5339 88.3828 54.4141L88.8516 54.5625H83.7266V53.25H89.8047V54.5625C89.8047 55.9271 89.5286 57.1068 88.9766 58.1016C88.4245 59.0964 87.6667 59.8646 86.7031 60.4062C85.7396 60.9479 84.6328 61.2187 83.3828 61.2187C81.987 61.2187 80.7656 60.8828 79.7188 60.2109C78.6719 59.5339 77.8568 58.5807 77.2734 57.3516C76.6953 56.1172 76.4062 54.6667 76.4062 53C76.4062 51.7448 76.5729 50.612 76.9062 49.6016C77.2396 48.5911 77.7109 47.7266 78.3203 47.0078C78.9349 46.2891 79.6615 45.7396 80.5 45.3594C81.3385 44.974 82.2656 44.7812 83.2813 44.7812C84.1563 44.7812 84.9557 44.9193 85.6797 45.1953C86.4089 45.4714 87.0495 45.8516 87.6016 46.3359C88.1589 46.8151 88.6146 47.3698 88.9688 48C89.3281 48.625 89.5703 49.2917 89.6953 50H88.1953ZM94.2426 61V49H95.5941V50.8437H95.6957C95.9353 50.2396 96.352 49.7526 96.9457 49.3828C97.5447 49.0078 98.2217 48.8203 98.977 48.8203C99.0915 48.8203 99.2191 48.8229 99.3598 48.8281C99.5004 48.8333 99.6176 48.8385 99.7113 48.8438V50.2578C99.6488 50.2474 99.5395 50.2318 99.3832 50.2109C99.227 50.1901 99.0577 50.1797 98.8754 50.1797C98.2504 50.1797 97.6931 50.3125 97.2035 50.5781C96.7191 50.8385 96.3363 51.2005 96.0551 51.6641C95.7738 52.1276 95.6332 52.6562 95.6332 53.25V61H94.2426ZM107.483 61.25C106.447 61.25 105.53 60.987 104.733 60.4609C103.942 59.9349 103.322 59.2083 102.874 58.2812C102.426 57.349 102.202 56.2734 102.202 55.0547C102.202 53.8255 102.426 52.7448 102.874 51.8125C103.322 50.875 103.942 50.1458 104.733 49.625C105.53 49.099 106.447 48.8359 107.483 48.8359C108.52 48.8359 109.434 49.099 110.225 49.625C111.017 50.151 111.637 50.8802 112.085 51.8125C112.538 52.7448 112.764 53.8255 112.764 55.0547C112.764 56.2734 112.54 57.349 112.093 58.2812C111.645 59.2083 111.022 59.9349 110.225 60.4609C109.434 60.987 108.52 61.25 107.483 61.25ZM107.483 59.9766C108.317 59.9766 109.022 59.7526 109.6 59.3047C110.179 58.8568 110.616 58.2604 110.913 57.5156C111.215 56.7708 111.366 55.9505 111.366 55.0547C111.366 54.1589 111.215 53.3359 110.913 52.5859C110.616 51.8359 110.179 51.2344 109.6 50.7812C109.022 50.3281 108.317 50.1016 107.483 50.1016C106.655 50.1016 105.949 50.3281 105.366 50.7812C104.788 51.2344 104.348 51.8359 104.046 52.5859C103.749 53.3359 103.6 54.1589 103.6 55.0547C103.6 55.9505 103.749 56.7708 104.046 57.5156C104.348 58.2604 104.788 58.8568 105.366 59.3047C105.944 59.7526 106.65 59.9766 107.483 59.9766ZM124.542 56.4141V49H125.933V61H124.542V59.0078H124.433C124.152 59.6224 123.706 60.1354 123.097 60.5469C122.487 60.9531 121.743 61.1563 120.862 61.1563C120.097 61.1563 119.417 60.9896 118.823 60.6562C118.23 60.3177 117.764 59.8229 117.425 59.1719C117.086 58.5208 116.917 57.7214 116.917 56.7734V49H118.308V56.6875C118.308 57.625 118.584 58.3802 119.136 58.9531C119.688 59.5208 120.396 59.8047 121.261 59.8047C121.803 59.8047 122.323 59.6745 122.823 59.4141C123.323 59.1536 123.735 58.7734 124.058 58.2734C124.381 57.7682 124.542 57.1484 124.542 56.4141ZM130.714 65.5V49H132.066V51.2891H132.23C132.397 50.9297 132.626 50.5625 132.918 50.1875C133.209 49.8073 133.595 49.487 134.074 49.2266C134.558 48.9661 135.168 48.8359 135.902 48.8359C136.892 48.8359 137.756 49.0964 138.496 49.6172C139.24 50.1328 139.819 50.8568 140.23 51.7891C140.647 52.7161 140.855 53.7969 140.855 55.0313C140.855 56.2708 140.647 57.3568 140.23 58.2891C139.819 59.2214 139.24 59.9479 138.496 60.4687C137.756 60.9896 136.897 61.25 135.918 61.25C135.194 61.25 134.587 61.1198 134.097 60.8594C133.613 60.599 133.22 60.2786 132.918 59.8984C132.621 59.513 132.392 59.138 132.23 58.7734H132.105V65.5H130.714ZM132.089 55.0078C132.089 55.9766 132.233 56.8359 132.519 57.5859C132.811 58.3307 133.227 58.9167 133.769 59.3437C134.316 59.7656 134.977 59.9766 135.754 59.9766C136.55 59.9766 137.222 59.7578 137.769 59.3203C138.321 58.8776 138.74 58.2812 139.027 57.5313C139.319 56.7812 139.464 55.9401 139.464 55.0078C139.464 54.0859 139.321 53.2552 139.035 52.5156C138.754 51.776 138.337 51.1901 137.785 50.7578C137.233 50.3203 136.556 50.1016 135.754 50.1016C134.972 50.1016 134.308 50.3125 133.761 50.7344C133.214 51.151 132.798 51.7292 132.511 52.4687C132.23 53.2031 132.089 54.0495 132.089 55.0078Z" fill="#FFD34E"/>
</svg>
